<svg xmlns="http://www.w3.org/2000/svg" xmlns:xlink="http://www.w3.org/1999/xlink" width="500" zoomAndPan="magnify" viewBox="0 0 375 374.999991" height="500" preserveAspectRatio="xMidYMid meet" version="1.0"><defs><clipPath id="6b67342fad"><path d="M 52 166 L 60 166 L 60 173 L 52 173 Z M 52 166 " clip-rule="nonzero"/></clipPath><clipPath id="6c37af50b8"><path d="M 51.382812 169.957031 L 53.75 165.269531 L 59.773438 168.3125 L 57.410156 173 Z M 51.382812 169.957031 " clip-rule="nonzero"/></clipPath><clipPath id="941701a39a"><path d="M 51.382812 169.957031 L 53.75 165.269531 L 59.773438 168.3125 L 57.410156 173 Z M 51.382812 169.957031 " clip-rule="nonzero"/></clipPath><clipPath id="e8e82057e7"><path d="M 82.375 218.039062 L 87.625 218.039062 L 87.625 224.789062 L 82.375 224.789062 Z M 82.375 218.039062 " clip-rule="nonzero"/></clipPath><clipPath id="be64d13115"><path d="M 82.726562 150.257812 L 87.976562 150.257812 L 87.976562 157.007812 L 82.726562 157.007812 Z M 82.726562 150.257812 " clip-rule="nonzero"/></clipPath><clipPath id="f263a15522"><path d="M 111 202 L 119 202 L 119 209 L 111 209 Z M 111 202 " clip-rule="nonzero"/></clipPath><clipPath id="b2ff619ca3"><path d="M 119.039062 205.492188 L 116.378906 210.019531 L 110.558594 206.601562 L 113.214844 202.074219 Z M 119.039062 205.492188 " clip-rule="nonzero"/></clipPath><clipPath id="8ec632ad2d"><path d="M 119.039062 205.492188 L 116.378906 210.019531 L 110.558594 206.601562 L 113.214844 202.074219 Z M 119.039062 205.492188 " clip-rule="nonzero"/></clipPath><clipPath id="b09bd24841"><path d="M 111 166 L 119 166 L 119 173 L 111 173 Z M 111 166 " clip-rule="nonzero"/></clipPath><clipPath id="683a32f5be"><path d="M 116.597656 165.488281 L 119.207031 170.042969 L 113.351562 173.398438 L 110.742188 168.84375 Z M 116.597656 165.488281 " clip-rule="nonzero"/></clipPath><clipPath id="8f1013d5ef"><path d="M 116.597656 165.488281 L 119.207031 170.042969 L 113.351562 173.398438 L 110.742188 168.84375 Z M 116.597656 165.488281 " clip-rule="nonzero"/></clipPath><clipPath id="086aec5fe7"><path d="M 52 201 L 60 201 L 60 209 L 52 209 Z M 52 201 " clip-rule="nonzero"/></clipPath><clipPath id="fee29f29d0"><path d="M 53.796875 209.273438 L 51.210938 204.703125 L 57.082031 201.378906 L 59.671875 205.945312 Z M 53.796875 209.273438 " clip-rule="nonzero"/></clipPath><clipPath id="050b5b7114"><path d="M 53.796875 209.273438 L 51.210938 204.703125 L 57.082031 201.378906 L 59.671875 205.945312 Z M 53.796875 209.273438 " clip-rule="nonzero"/></clipPath><clipPath id="7903e0b8e7"><path d="M 141 0.96875 L 186 0.96875 L 186 45 L 141 45 Z M 141 0.96875 " clip-rule="nonzero"/></clipPath><clipPath id="83b3fff4c9"><path d="M 277 73 L 327.601562 73 L 327.601562 124 L 277 124 Z M 277 73 " clip-rule="nonzero"/></clipPath><clipPath id="d474ba907f"><path d="M 277 243 L 327.601562 243 L 327.601562 294 L 277 294 Z M 277 243 " clip-rule="nonzero"/></clipPath><clipPath id="a71a57cb24"><path d="M 141 322 L 186 322 L 186 366.558594 L 141 366.558594 Z M 141 322 " clip-rule="nonzero"/></clipPath><clipPath id="a3affa931b"><path d="M 8 86 L 43 86 L 43 115 L 8 115 Z M 8 86 " clip-rule="nonzero"/></clipPath><clipPath id="a0f323fa4b"><path d="M 4.6875 101.164062 L 15.816406 79.105469 L 44.175781 93.414062 L 33.046875 115.46875 Z M 4.6875 101.164062 " clip-rule="nonzero"/></clipPath><clipPath id="638ad0d02a"><path d="M 4.6875 101.164062 L 15.816406 79.105469 L 44.175781 93.414062 L 33.046875 115.46875 Z M 4.6875 101.164062 " clip-rule="nonzero"/></clipPath><clipPath id="363ae8e443"><path d="M 152 327.40625 L 175.226562 327.40625 L 175.226562 359.167969 L 152 359.167969 Z M 152 327.40625 " clip-rule="nonzero"/></clipPath><clipPath id="9a59aef167"><path d="M 152.175781 8.46875 L 176 8.46875 L 176 40.230469 L 152.175781 40.230469 Z M 152.175781 8.46875 " clip-rule="nonzero"/></clipPath><clipPath id="2abf336e81"><path d="M 285 253 L 319 253 L 319 283 L 285 283 Z M 285 253 " clip-rule="nonzero"/></clipPath><clipPath id="28b5976afb"><path d="M 323.042969 268.371094 L 310.535156 289.675781 L 283.144531 273.59375 L 295.652344 252.289062 Z M 323.042969 268.371094 " clip-rule="nonzero"/></clipPath><clipPath id="75e5dd6464"><path d="M 323.042969 268.371094 L 310.535156 289.675781 L 283.144531 273.59375 L 295.652344 252.289062 Z M 323.042969 268.371094 " clip-rule="nonzero"/></clipPath><clipPath id="966d82cfa0"><path d="M 285 85 L 319 85 L 319 115 L 285 115 Z M 285 85 " clip-rule="nonzero"/></clipPath><clipPath id="81d39b46d7"><path d="M 311.558594 80.128906 L 323.84375 101.5625 L 296.289062 117.359375 L 284.003906 95.925781 Z M 311.558594 80.128906 " clip-rule="nonzero"/></clipPath><clipPath id="f88843b926"><path d="M 311.558594 80.128906 L 323.84375 101.5625 L 296.289062 117.359375 L 284.003906 95.925781 Z M 311.558594 80.128906 " clip-rule="nonzero"/></clipPath><clipPath id="4347d9b5de"><path d="M 9 251 L 43 251 L 43 281 L 9 281 Z M 9 251 " clip-rule="nonzero"/></clipPath><clipPath id="cdd2c9930e"><path d="M 16.046875 286.15625 L 3.875 264.660156 L 31.511719 249.007812 L 43.6875 270.507812 Z M 16.046875 286.15625 " clip-rule="nonzero"/></clipPath><clipPath id="6b99bc3053"><path d="M 16.046875 286.15625 L 3.875 264.660156 L 31.511719 249.007812 L 43.6875 270.507812 Z M 16.046875 286.15625 " clip-rule="nonzero"/></clipPath><clipPath id="2e3b066024"><rect x="0" width="328" y="0" height="367"/></clipPath></defs><g clip-path="url(#6b67342fad)"><g clip-path="url(#6c37af50b8)"><g clip-path="url(#941701a39a)"><path fill="#000000" d="M 53.179688 168.121094 C 53.441406 167.601562 54.074219 167.390625 54.597656 167.652344 L 55.539062 168.128906 L 54.589844 170.015625 L 53.644531 169.539062 C 53.125 169.277344 52.914062 168.640625 53.179688 168.121094 Z M 55.890625 167.449219 L 54.933594 166.964844 C 54.035156 166.511719 52.941406 166.871094 52.488281 167.773438 C 52.03125 168.671875 52.394531 169.765625 53.292969 170.21875 L 54.25 170.703125 C 54.132812 171.039062 54.28125 171.417969 54.609375 171.585938 L 56.761719 172.671875 C 57.121094 172.851562 57.554688 172.707031 57.738281 172.351562 L 59.289062 169.273438 C 59.46875 168.914062 59.324219 168.480469 58.96875 168.300781 L 56.8125 167.210938 C 56.488281 167.046875 56.09375 167.15625 55.890625 167.449219 " fill-opacity="1" fill-rule="nonzero"/></g></g></g><g clip-path="url(#e8e82057e7)"><path fill="#000000" d="M 85.175781 224.011719 C 84.59375 224.011719 84.121094 223.539062 84.121094 222.957031 L 84.121094 221.898438 L 86.230469 221.898438 L 86.230469 222.957031 C 86.230469 223.539062 85.757812 224.011719 85.175781 224.011719 Z M 83.351562 221.894531 L 83.351562 222.964844 C 83.351562 223.972656 84.167969 224.789062 85.175781 224.789062 C 86.183594 224.789062 87 223.972656 87 222.964844 L 87 221.894531 C 87.351562 221.84375 87.625 221.542969 87.625 221.175781 L 87.625 218.761719 C 87.625 218.363281 87.300781 218.039062 86.898438 218.039062 L 83.453125 218.039062 C 83.050781 218.039062 82.726562 218.363281 82.726562 218.761719 L 82.726562 221.175781 C 82.726562 221.542969 83 221.84375 83.351562 221.894531 " fill-opacity="1" fill-rule="nonzero"/></g><g clip-path="url(#be64d13115)"><path fill="#000000" d="M 85.175781 151.035156 C 85.757812 151.035156 86.230469 151.507812 86.230469 152.089844 L 86.230469 153.148438 L 84.121094 153.148438 L 84.121094 152.089844 C 84.121094 151.507812 84.59375 151.035156 85.175781 151.035156 Z M 87 153.15625 L 87 152.082031 C 87 151.074219 86.183594 150.257812 85.175781 150.257812 C 84.167969 150.257812 83.351562 151.074219 83.351562 152.082031 L 83.351562 153.15625 C 83 153.203125 82.726562 153.503906 82.726562 153.871094 L 82.726562 156.285156 C 82.726562 156.683594 83.050781 157.007812 83.453125 157.007812 L 86.898438 157.007812 C 87.300781 157.007812 87.625 156.683594 87.625 156.285156 L 87.625 153.871094 C 87.625 153.503906 87.351562 153.203125 87 153.15625 " fill-opacity="1" fill-rule="nonzero"/></g><g clip-path="url(#f263a15522)"><g clip-path="url(#b2ff619ca3)"><g clip-path="url(#8ec632ad2d)"><path fill="#000000" d="M 117.128906 207.210938 C 116.835938 207.714844 116.1875 207.882812 115.683594 207.585938 L 114.773438 207.050781 L 115.84375 205.230469 L 116.753906 205.765625 C 117.257812 206.0625 117.425781 206.710938 117.128906 207.210938 Z M 114.378906 207.710938 L 115.304688 208.253906 C 116.171875 208.761719 117.289062 208.472656 117.796875 207.605469 C 118.308594 206.734375 118.015625 205.621094 117.148438 205.109375 L 116.222656 204.566406 C 116.359375 204.238281 116.238281 203.851562 115.921875 203.664062 L 113.839844 202.441406 C 113.496094 202.238281 113.050781 202.355469 112.847656 202.699219 L 111.105469 205.671875 C 110.902344 206.019531 111.015625 206.460938 111.363281 206.664062 L 113.445312 207.886719 C 113.757812 208.074219 114.15625 207.992188 114.378906 207.710938 " fill-opacity="1" fill-rule="nonzero"/></g></g></g><g clip-path="url(#b09bd24841)"><g clip-path="url(#683a32f5be)"><g clip-path="url(#8f1013d5ef)"><path fill="#000000" d="M 117.144531 168 C 117.433594 168.503906 117.257812 169.148438 116.753906 169.4375 L 115.835938 169.964844 L 114.785156 168.132812 L 115.703125 167.609375 C 116.207031 167.316406 116.851562 167.492188 117.144531 168 Z M 116.210938 170.632812 L 117.140625 170.101562 C 118.015625 169.601562 118.316406 168.488281 117.816406 167.613281 C 117.316406 166.738281 116.199219 166.4375 115.328125 166.9375 L 114.398438 167.472656 C 114.179688 167.191406 113.78125 167.105469 113.464844 167.285156 L 111.371094 168.484375 C 111.023438 168.683594 110.902344 169.128906 111.101562 169.476562 L 112.816406 172.464844 C 113.015625 172.8125 113.457031 172.933594 113.804688 172.734375 L 115.898438 171.535156 C 116.21875 171.351562 116.34375 170.964844 116.210938 170.632812 " fill-opacity="1" fill-rule="nonzero"/></g></g></g><g clip-path="url(#086aec5fe7)"><g clip-path="url(#fee29f29d0)"><g clip-path="url(#050b5b7114)"><path fill="#000000" d="M 53.265625 206.757812 C 52.976562 206.25 53.15625 205.609375 53.664062 205.320312 L 54.582031 204.800781 L 55.621094 206.636719 L 54.703125 207.15625 C 54.195312 207.445312 53.550781 207.265625 53.265625 206.757812 Z M 54.210938 204.128906 L 53.277344 204.65625 C 52.402344 205.152344 52.09375 206.265625 52.589844 207.140625 C 53.085938 208.015625 54.199219 208.324219 55.074219 207.828125 L 56.007812 207.300781 C 56.222656 207.582031 56.621094 207.671875 56.941406 207.492188 L 59.039062 206.300781 C 59.386719 206.105469 59.511719 205.664062 59.3125 205.316406 L 57.613281 202.316406 C 57.417969 201.96875 56.976562 201.84375 56.625 202.042969 L 54.527344 203.230469 C 54.207031 203.410156 54.078125 203.796875 54.210938 204.128906 " fill-opacity="1" fill-rule="nonzero"/></g></g></g><g transform="matrix(1, 0, 0, 1, 24, 4)"><g clip-path="url(#2e3b066024)"><path fill="#ffffff" d="M 159.402344 97.789062 L 159.402344 40.382812 C 159.402344 38.023438 161.328125 36.097656 163.6875 36.097656 C 166.042969 36.097656 167.96875 38.023438 167.96875 40.382812 L 167.96875 97.789062 L 163.6875 95.433594 Z M 159.402344 97.789062 " fill-opacity="1" fill-rule="evenodd"/><path fill="#ffffff" d="M 87.214844 141.058594 L 38.160156 111.070312 C 36.019531 109.785156 35.375 107.214844 36.660156 105.070312 C 37.945312 103.144531 40.515625 102.5 42.445312 103.785156 L 91.710938 133.777344 L 89.785156 134.847656 L 87.214844 136.132812 Z M 87.214844 141.058594 " fill-opacity="1" fill-rule="evenodd"/><path fill="#ffffff" d="M 235.875 133.777344 L 284.925781 103.785156 C 287.070312 102.5 289.640625 103.144531 290.925781 105.070312 C 292.210938 107.214844 291.566406 109.785156 289.425781 111.070312 L 240.15625 141.058594 L 240.15625 136.132812 L 237.585938 134.847656 Z M 235.875 133.777344 " fill-opacity="1" fill-rule="evenodd"/><path fill="#ffffff" d="M 163.6875 331.488281 C 161.328125 331.488281 159.402344 329.5625 159.402344 327.203125 L 159.402344 269.796875 L 161.328125 270.867188 L 163.6875 272.152344 L 166.257812 270.867188 L 167.96875 269.796875 L 167.96875 327.203125 C 167.96875 329.5625 166.042969 331.488281 163.6875 331.488281 Z M 163.6875 331.488281 " fill-opacity="1" fill-rule="evenodd"/><path fill="#ffffff" d="M 40.300781 264.441406 C 38.804688 264.441406 37.519531 263.585938 36.660156 262.300781 C 35.375 260.371094 36.019531 257.800781 38.160156 256.515625 L 87.214844 226.3125 L 87.214844 231.453125 L 91.5 233.8125 L 42.445312 263.800781 C 41.800781 264.226562 41.160156 264.441406 40.300781 264.441406 Z M 40.300781 264.441406 " fill-opacity="1" fill-rule="evenodd"/><path fill="#ffffff" d="M 287.285156 264.441406 C 286.425781 264.441406 285.785156 264.226562 284.925781 263.800781 L 235.875 233.8125 L 240.15625 231.453125 L 240.15625 226.3125 L 289.425781 256.515625 C 291.566406 257.800781 292.210938 260.371094 290.925781 262.300781 C 290.070312 263.585938 288.570312 264.441406 287.285156 264.441406 Z M 287.285156 264.441406 " fill-opacity="1" fill-rule="evenodd"/><g clip-path="url(#7903e0b8e7)"><path fill="#ffffff" d="M 172.253906 44.664062 L 155.117188 44.664062 C 147.621094 44.664062 141.621094 38.882812 141.621094 31.8125 L 141.621094 14.675781 C 141.621094 7.179688 147.835938 0.96875 155.117188 0.96875 L 172.253906 0.96875 C 179.75 0.96875 185.964844 7.179688 185.964844 14.675781 L 185.964844 31.8125 C 185.964844 38.882812 179.964844 44.664062 172.253906 44.664062 Z M 172.253906 44.664062 " fill-opacity="1" fill-rule="evenodd"/></g><path fill="#ffffff" d="M 28.734375 123.921875 C 26.164062 123.921875 23.808594 123.066406 21.667969 121.78125 L 6.886719 113.210938 C 3.886719 111.710938 1.53125 108.925781 0.675781 105.5 C -0.398438 102.074219 0.03125 98.429688 1.53125 95.433594 C 1.53125 95.433594 1.53125 95.433594 1.53125 95.21875 L 10.097656 80.222656 C 10.3125 80.222656 10.3125 80.222656 10.3125 80.007812 C 12.882812 76.152344 17.167969 73.796875 21.878906 73.796875 C 24.453125 73.796875 26.808594 74.441406 28.949219 75.941406 L 43.085938 84.292969 C 46.300781 86.007812 48.871094 89.21875 49.726562 92.648438 C 50.585938 96.074219 50.15625 99.503906 48.226562 102.5 L 39.875 117.28125 C 37.730469 121.351562 33.449219 123.921875 28.734375 123.921875 Z M 28.734375 123.921875 " fill-opacity="1" fill-rule="evenodd"/><g clip-path="url(#83b3fff4c9)"><path fill="#ffffff" d="M 298.851562 123.921875 C 294.136719 123.921875 289.855469 121.351562 287.710938 117.28125 L 279.359375 102.5 C 277.429688 99.503906 276.789062 95.859375 277.429688 92.433594 C 278.285156 88.792969 280.429688 85.792969 283.429688 83.867188 C 283.429688 83.867188 283.640625 83.652344 283.640625 83.652344 L 298.636719 75.082031 C 298.636719 75.082031 298.851562 75.082031 298.851562 75.082031 C 300.777344 74.011719 302.921875 73.582031 305.0625 73.582031 C 309.988281 73.582031 314.488281 75.941406 317.273438 80.007812 C 317.273438 80.222656 317.273438 80.222656 317.273438 80.222656 L 325.839844 95.21875 C 326.054688 95.433594 326.054688 95.433594 326.054688 95.433594 C 327.554688 98.429688 327.769531 102.074219 326.910156 105.5 C 326.054688 108.925781 323.699219 111.710938 320.699219 113.210938 L 305.917969 121.78125 C 303.777344 123.066406 301.207031 123.921875 298.851562 123.921875 Z M 298.851562 123.921875 " fill-opacity="1" fill-rule="evenodd"/></g><g clip-path="url(#d474ba907f)"><path fill="#ffffff" d="M 305.707031 293.789062 C 303.136719 293.789062 300.566406 292.933594 298.421875 291.648438 L 284.5 283.078125 C 281.285156 281.363281 278.714844 278.367188 277.859375 274.722656 C 276.789062 271.296875 277.429688 267.871094 279.359375 265.085938 L 287.710938 250.304688 C 289.855469 246.234375 294.136719 243.664062 298.851562 243.664062 C 301.207031 243.664062 303.777344 244.308594 305.917969 245.804688 L 320.699219 254.160156 C 323.699219 255.875 326.054688 258.660156 326.910156 262.085938 C 327.769531 265.300781 327.554688 268.941406 326.054688 271.941406 C 326.054688 272.152344 326.054688 272.152344 325.839844 272.152344 L 317.273438 287.148438 C 317.273438 287.363281 317.273438 287.363281 317.273438 287.578125 C 314.488281 291.433594 310.203125 293.789062 305.707031 293.789062 Z M 305.707031 293.789062 " fill-opacity="1" fill-rule="evenodd"/></g><path fill="#ffffff" d="M 22.523438 294.003906 C 17.597656 294.003906 13.097656 291.433594 10.3125 287.578125 C 10.3125 287.363281 10.3125 287.363281 10.097656 287.148438 L 1.53125 272.152344 C 1.53125 272.152344 1.53125 272.152344 1.53125 271.941406 C 0.03125 268.941406 -0.398438 265.300781 0.675781 262.085938 C 1.53125 258.660156 3.886719 255.875 6.886719 254.160156 L 21.667969 245.804688 C 23.808594 244.308594 26.164062 243.664062 28.734375 243.664062 C 33.449219 243.664062 37.730469 246.234375 39.875 250.304688 L 48.226562 265.085938 C 50.15625 267.871094 50.585938 271.296875 49.726562 274.722656 C 48.871094 278.367188 46.300781 281.363281 43.085938 283.078125 L 29.164062 292.289062 C 28.949219 292.289062 28.734375 292.503906 28.734375 292.503906 C 26.808594 293.359375 24.664062 294.003906 22.523438 294.003906 Z M 22.523438 294.003906 " fill-opacity="1" fill-rule="evenodd"/><g clip-path="url(#a71a57cb24)"><path fill="#ffffff" d="M 172.253906 366.40625 L 155.117188 366.40625 C 147.835938 366.40625 141.621094 360.191406 141.621094 352.910156 L 141.621094 335.773438 C 141.621094 328.488281 147.621094 322.921875 155.117188 322.921875 L 172.253906 322.921875 C 179.964844 322.921875 185.964844 328.488281 185.964844 335.773438 L 185.964844 352.910156 C 185.964844 360.191406 179.75 366.40625 172.253906 366.40625 Z M 172.253906 366.40625 " fill-opacity="1" fill-rule="evenodd"/></g><path fill="#ffffff" d="M 33.875 88.148438 C 32.378906 88.148438 30.878906 87.292969 30.019531 85.792969 C 28.949219 83.867188 29.804688 81.296875 31.734375 80.007812 L 143.980469 19.390625 C 145.90625 18.316406 148.476562 18.960938 149.761719 21.101562 C 150.832031 23.246094 149.976562 25.816406 148.050781 26.886719 L 35.804688 87.507812 C 35.160156 87.933594 34.519531 88.148438 33.875 88.148438 Z M 33.875 88.148438 " fill-opacity="1" fill-rule="evenodd"/><path fill="#ffffff" d="M 16.097656 258.015625 C 13.742188 258.015625 11.8125 256.089844 11.8125 253.730469 L 11.8125 113.855469 C 11.8125 111.5 13.742188 109.570312 16.097656 109.570312 C 18.453125 109.570312 20.382812 111.5 20.382812 113.855469 L 20.382812 253.730469 C 20.382812 256.089844 18.453125 258.015625 16.097656 258.015625 Z M 16.097656 258.015625 " fill-opacity="1" fill-rule="evenodd"/><path fill="#ffffff" d="M 145.90625 348.625 C 145.265625 348.625 144.621094 348.410156 143.980469 348.199219 L 31.734375 287.363281 C 29.804688 286.292969 28.949219 283.722656 30.019531 281.578125 C 31.304688 279.652344 33.875 278.792969 35.804688 279.863281 L 148.050781 340.484375 C 149.976562 341.769531 150.832031 344.339844 149.761719 346.269531 C 148.90625 347.769531 147.40625 348.625 145.90625 348.625 Z M 145.90625 348.625 " fill-opacity="1" fill-rule="evenodd"/><path fill="#ffffff" d="M 181.679688 348.625 C 180.179688 348.625 178.679688 347.769531 177.824219 346.269531 C 176.753906 344.339844 177.394531 341.769531 179.539062 340.484375 L 291.566406 279.863281 C 293.710938 278.792969 296.28125 279.652344 297.351562 281.578125 C 298.636719 283.722656 297.78125 286.292969 295.636719 287.363281 L 183.605469 348.199219 C 182.964844 348.410156 182.320312 348.625 181.679688 348.625 Z M 181.679688 348.625 " fill-opacity="1" fill-rule="evenodd"/><path fill="#ffffff" d="M 311.488281 258.015625 C 309.132812 258.015625 307.203125 256.089844 307.203125 253.730469 L 307.203125 113.855469 C 307.203125 111.5 309.132812 109.570312 311.488281 109.570312 C 313.84375 109.570312 315.773438 111.5 315.773438 113.855469 L 315.773438 253.730469 C 315.773438 256.089844 313.84375 258.015625 311.488281 258.015625 Z M 311.488281 258.015625 " fill-opacity="1" fill-rule="evenodd"/><path fill="#ffffff" d="M 293.710938 87.507812 C 292.851562 87.507812 292.210938 87.292969 291.566406 86.863281 L 179.539062 26.886719 C 177.394531 25.816406 176.753906 23.246094 177.824219 21.101562 C 178.894531 19.175781 181.464844 18.316406 183.605469 19.390625 L 295.636719 79.367188 C 297.78125 80.4375 298.636719 83.007812 297.351562 85.152344 C 296.707031 86.648438 295.210938 87.507812 293.710938 87.507812 Z M 293.710938 87.507812 " fill-opacity="1" fill-rule="evenodd"/><path fill="#ffffff" d="M 159.1875 182.613281 L 94.496094 145.558594 L 94.496094 227.171875 L 159.1875 261.65625 Z M 99.425781 137.84375 L 163.6875 174.6875 L 228.164062 137.84375 L 163.6875 103.574219 Z M 233.089844 145.558594 L 168.398438 182.613281 L 168.398438 261.65625 L 233.089844 227.171875 Z M 233.089844 145.558594 " fill-opacity="1" fill-rule="evenodd"/><g clip-path="url(#a3affa931b)"><g clip-path="url(#a0f323fa4b)"><g clip-path="url(#638ad0d02a)"><path fill="#000000" d="M 13.132812 92.515625 C 14.371094 90.066406 17.355469 89.082031 19.804688 90.320312 L 24.246094 92.558594 L 19.773438 101.425781 L 15.332031 99.1875 C 12.882812 97.949219 11.898438 94.964844 13.132812 92.515625 Z M 25.90625 89.351562 L 21.398438 87.078125 C 17.171875 84.945312 12.011719 86.644531 9.878906 90.875 C 7.746094 95.101562 9.445312 100.261719 13.671875 102.394531 L 18.179688 104.667969 C 17.632812 106.253906 18.328125 108.039062 19.867188 108.816406 L 30.003906 113.929688 C 31.6875 114.777344 33.738281 114.101562 34.585938 112.421875 L 41.890625 97.9375 C 42.738281 96.257812 42.0625 94.207031 40.382812 93.359375 L 30.246094 88.242188 C 28.703125 87.46875 26.855469 87.972656 25.90625 89.351562 " fill-opacity="1" fill-rule="nonzero"/></g></g></g><g clip-path="url(#363ae8e443)"><path fill="#000000" d="M 163.703125 355.523438 C 160.957031 355.523438 158.734375 353.300781 158.734375 350.554688 L 158.734375 345.582031 L 168.667969 345.582031 L 168.667969 350.554688 C 168.667969 353.300781 166.445312 355.523438 163.703125 355.523438 Z M 155.125 345.546875 L 155.125 350.59375 C 155.125 355.328125 158.964844 359.167969 163.703125 359.167969 C 168.4375 359.167969 172.277344 355.328125 172.277344 350.59375 L 172.277344 345.546875 C 173.941406 345.316406 175.222656 343.894531 175.222656 342.171875 L 175.222656 330.816406 C 175.222656 328.933594 173.695312 327.40625 171.8125 327.40625 L 155.589844 327.40625 C 153.707031 327.40625 152.179688 328.933594 152.179688 330.816406 L 152.179688 342.171875 C 152.179688 343.894531 153.464844 345.316406 155.125 345.546875 " fill-opacity="1" fill-rule="nonzero"/></g><g clip-path="url(#9a59aef167)"><path fill="#000000" d="M 163.703125 12.113281 C 166.445312 12.113281 168.667969 14.335938 168.667969 17.082031 L 168.667969 22.054688 L 158.734375 22.054688 L 158.734375 17.082031 C 158.734375 14.335938 160.957031 12.113281 163.703125 12.113281 Z M 172.277344 22.09375 L 172.277344 17.042969 C 172.277344 12.308594 168.4375 8.46875 163.703125 8.46875 C 158.964844 8.46875 155.125 12.308594 155.125 17.042969 L 155.125 22.09375 C 153.464844 22.320312 152.179688 23.742188 152.179688 25.464844 L 152.179688 36.820312 C 152.179688 38.703125 153.707031 40.230469 155.589844 40.230469 L 171.8125 40.230469 C 173.695312 40.230469 175.222656 38.703125 175.222656 36.820312 L 175.222656 25.464844 C 175.222656 23.742188 173.941406 22.320312 172.277344 22.09375 " fill-opacity="1" fill-rule="nonzero"/></g><g clip-path="url(#2abf336e81)"><g clip-path="url(#28b5976afb)"><g clip-path="url(#75e5dd6464)"><path fill="#000000" d="M 314.066406 276.464844 C 312.675781 278.832031 309.632812 279.621094 307.265625 278.230469 L 302.976562 275.710938 L 308.003906 267.148438 L 312.296875 269.667969 C 314.660156 271.054688 315.453125 274.097656 314.066406 276.464844 Z M 301.117188 278.808594 L 305.472656 281.363281 C 309.554688 283.761719 314.8125 282.394531 317.210938 278.308594 C 319.605469 274.222656 318.238281 268.96875 314.15625 266.570312 L 309.800781 264.015625 C 310.445312 262.46875 309.871094 260.640625 308.382812 259.769531 L 298.589844 254.019531 C 296.964844 253.066406 294.875 253.613281 293.921875 255.234375 L 285.710938 269.222656 C 284.757812 270.847656 285.300781 272.9375 286.925781 273.890625 L 296.71875 279.640625 C 298.207031 280.511719 300.082031 280.125 301.117188 278.808594 " fill-opacity="1" fill-rule="nonzero"/></g></g></g><g clip-path="url(#966d82cfa0)"><g clip-path="url(#81d39b46d7)"><g clip-path="url(#f88843b926)"><path fill="#000000" d="M 314.128906 91.941406 C 315.492188 94.320312 314.667969 97.355469 312.289062 98.71875 L 307.972656 101.195312 L 303.03125 92.578125 L 307.347656 90.101562 C 309.730469 88.738281 312.765625 89.558594 314.128906 91.941406 Z M 309.738281 104.34375 L 314.117188 101.832031 C 318.226562 99.476562 319.648438 94.238281 317.289062 90.128906 C 314.933594 86.019531 309.695312 84.597656 305.585938 86.953125 L 301.207031 89.464844 C 300.183594 88.132812 298.3125 87.730469 296.816406 88.585938 L 286.964844 94.234375 C 285.332031 95.171875 284.765625 97.253906 285.703125 98.886719 L 293.769531 112.960938 C 294.707031 114.59375 296.789062 115.160156 298.421875 114.222656 L 308.273438 108.574219 C 309.769531 107.71875 310.367188 105.898438 309.738281 104.34375 " fill-opacity="1" fill-rule="nonzero"/></g></g></g><g clip-path="url(#4347d9b5de)"><g clip-path="url(#cdd2c9930e)"><g clip-path="url(#6b99bc3053)"><path fill="#000000" d="M 13.539062 274.332031 C 12.1875 271.945312 13.027344 268.914062 15.414062 267.5625 L 19.746094 265.113281 L 24.636719 273.753906 L 20.308594 276.207031 C 17.921875 277.558594 14.890625 276.71875 13.539062 274.332031 Z M 17.996094 261.953125 L 13.605469 264.441406 C 9.484375 266.773438 8.035156 272.007812 10.367188 276.128906 C 12.699219 280.25 17.933594 281.699219 22.054688 279.367188 L 26.449219 276.878906 C 27.464844 278.214844 29.332031 278.628906 30.835938 277.777344 L 40.714844 272.183594 C 42.355469 271.253906 42.929688 269.175781 42.003906 267.535156 L 34.011719 253.421875 C 33.082031 251.78125 31 251.207031 29.363281 252.132812 L 19.480469 257.730469 C 17.980469 258.578125 17.375 260.394531 17.996094 261.953125 " fill-opacity="1" fill-rule="nonzero"/></g></g></g></g></g></svg>